<svg width="18" height="18" viewBox="0 0 25 25" fill="none" xmlns="http://www.w3.org/2000/svg">
<g clip-path="url(#clip0_5527_1356)">
<path d="M24.266 13.2464C24.266 12.4307 24.1999 11.6105 24.0588 10.808H12.74V15.429H19.2217C18.9528 16.9194 18.0885 18.2378 16.823 19.0755V22.0739H20.69C22.9608 19.9839 24.266 16.8973 24.266 13.2464Z" fill="#4285F4"/>
<path d="M12.74 24.9708C15.9764 24.9708 18.7058 23.9081 20.6944 22.0739L16.8274 19.0755C15.7516 19.8075 14.3626 20.2219 12.7444 20.2219C9.61376 20.2219 6.95934 18.1099 6.00693 15.2703H2.01648V18.3612C4.05359 22.4134 8.20278 24.9708 12.74 24.9708Z" fill="#34A853"/>
<path d="M6.00253 15.2702C5.49987 13.7799 5.49987 12.1661 6.00253 10.6757V7.58478H2.01649C0.31449 10.9756 0.31449 14.9704 2.01649 18.3612L6.00253 15.2702Z" fill="#FBBC04"/>
<path d="M12.74 5.71963C14.4508 5.69317 16.1043 6.33694 17.3433 7.51864L20.7694 4.09259C18.6 2.05548 15.7207 0.935505 12.74 0.970779C8.20277 0.970779 4.05359 3.52819 2.01648 7.58478L6.00252 10.6757C6.95052 7.8317 9.60935 5.71963 12.74 5.71963Z" fill="#EA4335"/>
</g>
<defs>
<clipPath id="clip0_5527_1356">
<rect width="24" height="24" fill="white" transform="translate(0.5 0.969971)"/>
</clipPath>
</defs>
</svg>
